<svg id="Layer_1" data-name="Layer 1" xmlns="http://www.w3.org/2000/svg" viewBox="0 0 482.08 309.58"><defs><style>.cls-1{fill:#fff;stroke:#000;stroke-miterlimit:10;}.cls-2{fill:#00a99d;}</style></defs><title>webexplainerFavicon1</title><path class="cls-1" d="M-79.5,123.5" transform="translate(-8.92 -76.11)"/><path class="cls-2" d="M22,133.31,175.34,323.87,149.78,373S51.46,251.1,22,213.86C-7.44,176.38,22,133.31,22,133.31Z" transform="translate(-8.92 -76.11)"/><path class="cls-2" d="M87.72,76.11,277.56,312.19,245.92,373S124.23,222.14,87.72,175.9,87.72,76.11,87.72,76.11Z" transform="translate(-8.92 -76.11)"/><path class="cls-2" d="M199.68,76.11,358.85,274l-31.64,60.6v.24c-2.92-3.65-6.09-7.54-9.25-11.44C279,275.19,222.8,205.1,199.92,176.14,163.17,129.65,199.68,76.11,199.68,76.11Z" transform="translate(-8.92 -76.11)"/><path class="cls-2" d="M491,205.35l-5.35,10.22L473,239.42l-38.94-10.95-18.74,34.8,37.24,10.46-17,32.62-1,1.7L397.3,297.59l-21.9,42.83,44.29,12.41L402.9,385.69l-45-11.2-26.28-34.07-.25-.49c-1.21-1.7-2.67-3.4-4.13-5.11v-.24L358.85,274l21.9-41.62L392.43,210a58.53,58.53,0,0,1,41.86-20.69l35.54,10Z" transform="translate(-8.92 -76.11)"/></svg>