<?xml version="1.0" encoding="utf-8"?>
<!-- Generator: Adobe Illustrator 23.0.5, SVG Export Plug-In . SVG Version: 6.00 Build 0)  -->
<svg version="1.2" baseProfile="tiny" id="Layer_1" xmlns="http://www.w3.org/2000/svg" xmlns:xlink="http://www.w3.org/1999/xlink"
	 x="0px" y="0px" viewBox="0 0 500 500" xml:space="preserve">
<path fill="#FFFFFF" stroke="#000000" stroke-miterlimit="10" d="M-79.5,123.5"/>
<g>
	<g>
		<g id="XMLID_1_">
			<g>
				<path fill="#00A99D" d="M156.3,190.8l63,78.3l-10.5,20.2c0,0-40.4-50.1-52.5-65.4C144.2,208.5,156.3,190.8,156.3,190.8z"/>
			</g>
			<g>
			</g>
		</g>
		<g id="XMLID_2_">
			<g>
				<path fill="#00A99D" d="M183.3,167.3l78,97l-13,25c0,0-50-62-65-81S183.3,167.3,183.3,167.3z"/>
			</g>
			<g>
			</g>
		</g>
		<g>
			<g>
				<g id="XMLID_4_">
					<g>
						<path fill="#00A99D" d="M229.3,167.3l65.4,81.3l-13,24.9l0,0.1c-1.2-1.5-2.5-3.1-3.8-4.7c-16-19.8-39.1-48.6-48.5-60.5
							C214.3,189.3,229.3,167.3,229.3,167.3z"/>
					</g>
					<g>
					</g>
				</g>
			</g>
			<g>
				<g id="XMLID_3_">
					<g>
						<path fill="#00A99D" d="M349,220.4l-2.2,4.2l-5.2,9.8l-16-4.5l-7.7,14.3l15.3,4.3l-7,13.4l-0.4,0.7l-15.3-4.3l-9,17.6
							l18.2,5.1l-6.9,13.5l-18.5-4.6l-10.8-14l-0.1-0.2c-0.5-0.7-1.1-1.4-1.7-2.1l0-0.1l13-24.9l9-17.1l4.8-9.2
							c4.2-4.9,10.3-8.2,17.2-8.5l14.6,4.1L349,220.4z"/>
					</g>
					<g>
					</g>
				</g>
			</g>
		</g>
	</g>
	<g>
		<path d="M151.3,332.7l3.9-27.6h6.5c-0.7,3.4-3.2,15.2-3.8,17.6h0.4c1.2-4.3,3.4-12.2,4.8-17.6h4.7c-0.7,4-1.9,12.8-2.7,17.3h0.5
			c0.9-4.3,3.3-15.7,3.6-17.3h6.3l-8.2,27.6h-6.9c0.3-2.5,0.5-5.1,1.4-10.3h-0.4c-1.3,4.8-2,6.8-2.9,10.3H151.3z"/>
		<path d="M185.5,321h-5.4l-1.3,6.5h6.4l-1.7,5.2h-12.3l5.8-27.6h12.1l-1.1,5.2h-5.6l-1.2,5.3h5.4L185.5,321z"/>
		<path d="M191.8,305.2h7.5c4.2,0,6.5,2.2,5.5,7.3l-0.2,1c-0.7,3.6-2.3,4.2-3.6,4.8c1.2,0.7,2.6,2.2,1.8,5.7l-0.5,2.2
			c-1,4.8-2.4,6.7-8.2,6.7H186L191.8,305.2z M193.2,328.1h0.6c1.1,0,1.4-0.7,1.7-1.8l0.8-4.1c0.3-1.4,0-1.8-1.2-1.8h-0.4
			L193.2,328.1z M196.6,315.9c0.7,0,1.2-0.5,1.4-1.7l0.5-2.5c0.2-0.9,0.3-1.8-0.9-1.8h-0.6l-1.3,6H196.6z"/>
		<path d="M222.5,321h-5.4l-1.3,6.5h6.4l-1.7,5.2h-12.3l5.8-27.6h12.1l-1.1,5.2h-5.6l-1.2,5.3h5.4L222.5,321z"/>
		<path d="M230.5,332.7c0.4-2.8,0.6-6,1.1-9.4h-0.3c-0.7,2.6-1.9,7.1-2.6,9.4h-6.4l6-14.4l-0.1-13.2h6.4c-0.4,2.3-1,6.4-1.2,8.4h0.3
			c0.6-2.2,2.1-6.6,2.6-8.4h6.3l-5.8,13.3l0.3,14.3H230.5z"/>
		<path d="M244.1,305.2h7.2c5.8,0,7,3.5,6.1,7.8l-0.6,2.7c-1,4.7-2.6,6.9-7.9,6.9h-2.1l-2.1,10.1h-6.5L244.1,305.2z M247.9,317.5
			h0.6c1,0,1.4-0.5,1.7-1.9l0.8-3.9c0.3-1.4,0-1.9-1-1.9h-0.6L247.9,317.5z"/>
		<path d="M261.3,305.2h6.5l-4.7,22.2h6l-1.6,5.4h-12L261.3,305.2z"/>
		<path d="M277.3,326.5l-1.5,6.2H269l8.7-27.6H288l-3,27.6h-6.5l0.8-6.2H277.3z M280.3,321.3c0.3-2.1,1.2-9.2,1.4-10.6h-0.3
			c-0.3,1.2-2,7.9-2.7,10.6H280.3z"/>
		<path d="M299.2,305.2l-5.8,27.6H287l5.8-27.6H299.2z"/>
		<path d="M296.1,332.7l5.8-27.6h7.1c-0.4,7.6-1.1,17.9-1.2,19.1h0.3c0.5-4.3,1.9-15.5,2.5-18.1l0.2-1h6l-5.8,27.6h-7.3
			c0.5-7.2,1.2-18,1.2-18.9h-0.3c-0.5,3.1-2,15-2.6,18.2l-0.1,0.7H296.1z"/>
		<path d="M327.9,321h-5.4l-1.3,6.5h6.4l-1.7,5.2h-12.3l5.8-27.6h12.1l-1.1,5.2h-5.6l-1.2,5.3h5.4L327.9,321z"/>
		<path d="M337.2,321.1l-2.5,11.6h-6.4l5.8-27.6h7.7c5,0,6.7,2.6,5.8,7.2l-0.4,1.9c-0.6,2.7-1.8,4.1-3.4,4.6c1.6,1,1.9,2.4,1,6.5
			c-0.7,3.3-1.4,6.3-1.5,7.4H337c-0.2-0.5,0.1-2.4,1.4-8.7c0.6-2.7,0.2-2.9-0.9-2.9H337.2z M338.2,316.4h0.5c1.2,0,1.6-0.5,1.9-2.2
			l0.5-2.3c0.3-1.6,0.1-2.1-1.2-2.1h-0.4L338.2,316.4z"/>
	</g>
</g>
</svg>
