<svg id="Layer_1" data-name="Layer 1" xmlns="http://www.w3.org/2000/svg" viewBox="0 0 411.28 343.84"><defs><style>.cls-1{fill:#fff;stroke:#000;stroke-miterlimit:10;}.cls-2{fill:#00a99d;}</style></defs><title>webexplainerLogo</title><path class="cls-1" d="M-79.5,123.5" transform="translate(-44.36 -78.08)"/><path class="cls-2" d="M55.53,126.87,186.34,289.45l-21.81,41.94s-83.88-104-109-135.79C30.4,163.62,55.53,126.87,55.53,126.87Z" transform="translate(-44.36 -78.08)"/><path class="cls-2" d="M111.59,78.08l162,201.4-27,51.91s-103.82-128.73-135-168.18S111.59,78.08,111.59,78.08Z" transform="translate(-44.36 -78.08)"/><path class="cls-2" d="M207.1,78.08,342.89,246.89l-27,51.7v.2c-2.49-3.11-5.19-6.43-7.89-9.75-33.22-41.12-81.18-100.92-100.7-125.62C176,123.76,207.1,78.08,207.1,78.08Z" transform="translate(-44.36 -78.08)"/><path class="cls-2" d="M455.64,188.33l-4.57,8.72L440.28,217.4l-33.23-9.34-16,29.69,31.76,8.93L408.3,274.5l-.83,1.45L375.7,267,357,303.57l37.79,10.59-14.32,28-38.42-9.55-22.42-29.07-.21-.42c-1-1.45-2.28-2.9-3.53-4.36v-.2l27-51.7,18.69-35.51,10-19.1a49.9,49.9,0,0,1,35.71-17.65l30.32,8.51Z" transform="translate(-44.36 -78.08)"/><path d="M45.14,421.51l8.1-57.31h13.5c-1.46,7.06-6.65,31.56-7.89,36.54h.83c2.49-8.92,7.06-25.33,10-36.54H79.4c-1.45,8.31-3.94,26.58-5.6,35.92h1c1.86-8.93,6.85-32.6,7.47-35.92H95.39l-17,57.31H64c.62-5.19,1-10.59,2.91-21.39h-.83c-2.7,10-4.16,14.12-6,21.39Z" transform="translate(-44.36 -78.08)"/><path d="M116.16,397.21H104.94l-2.7,13.5h13.29L112,421.51H86.46L98.51,364.2h25.12L121.35,375H109.72l-2.49,11h11.21Z" transform="translate(-44.36 -78.08)"/><path d="M129.24,364.41h15.57c8.72,0,13.5,4.57,11.42,15.15l-.42,2.08c-1.45,7.48-4.77,8.72-7.47,10,2.49,1.45,5.4,4.57,3.74,11.83L151,408c-2.08,10-5,13.91-17,13.91H117.19Zm2.9,47.55h1.25c2.28,0,2.91-1.46,3.53-3.74l1.66-8.51c.62-2.91,0-3.74-2.49-3.74h-.83Zm7.06-25.34c1.46,0,2.49-1,2.91-3.53l1-5.19c.41-1.87.62-3.73-1.87-3.73H140l-2.7,12.45Z" transform="translate(-44.36 -78.08)"/><path d="M193,397.21H181.77l-2.7,13.5h13.29l-3.53,10.8H163.29l12-57.31h25.13L198.17,375H186.54l-2.49,11h11.21Z" transform="translate(-44.36 -78.08)"/><path d="M209.59,421.51c.83-5.82,1.25-12.46,2.29-19.52h-.63c-1.45,5.4-3.94,14.74-5.4,19.52H192.57L205,391.61l-.2-27.41H218.1c-.83,4.78-2.07,13.29-2.49,17.44h.63c1.24-4.57,4.36-13.7,5.39-17.44h13.09l-12.05,27.62.63,29.69Z" transform="translate(-44.36 -78.08)"/><path d="M237.83,364.41h14.95c12,0,14.53,7.26,12.67,16.19l-1.25,5.61c-2.08,9.76-5.4,14.33-16.4,14.33h-4.36l-4.36,21h-13.5ZM245.72,390H247c2.07,0,2.9-1,3.53-3.95l1.66-8.1c.62-2.9,0-3.94-2.08-3.94h-1.25Z" transform="translate(-44.36 -78.08)"/><path d="M273.54,364.41H287l-9.76,46.09h12.46l-3.32,11.21H261.5Z" transform="translate(-44.36 -78.08)"/><path d="M306.77,408.63l-3.12,12.88H289.53L307.6,364.2H329l-6.23,57.31H309.26l1.66-12.88ZM313,397.84c.63-4.36,2.5-19.11,2.91-22h-.62c-.62,2.49-4.15,16.4-5.61,22Z" transform="translate(-44.36 -78.08)"/><path d="M352.24,364.41l-12.05,57.3H326.91l12-57.3Z" transform="translate(-44.36 -78.08)"/><path d="M345.8,421.51l12-57.31h14.75c-.83,15.78-2.29,37.17-2.5,39.66h.63c1-8.93,3.94-32.19,5.19-37.58l.41-2.08h12.46l-12,57.31H361.58c1-14.95,2.49-37.38,2.49-39.25h-.62c-1,6.44-4.15,31.15-5.4,37.79l-.21,1.46Z" transform="translate(-44.36 -78.08)"/><path d="M411.83,397.21H400.62l-2.7,13.5h13.29l-3.53,10.8H382.14l12-57.31H419.3L417,375H405.39l-2.49,11h11.21Z" transform="translate(-44.36 -78.08)"/><path d="M431.14,397.42,426,421.51H412.66l12-57.31h16c10.38,0,13.91,5.4,12,14.95l-.83,3.94c-1.24,5.61-3.73,8.52-7.06,9.56,3.33,2.07,4,5,2.08,13.49-1.45,6.85-2.91,13.08-3.11,15.37H430.72c-.41-1,.21-5,2.91-18.07,1.25-5.6.42-6-1.87-6Zm2.08-9.76h1c2.5,0,3.33-1,3.95-4.57l1-4.77c.62-3.32.2-4.36-2.49-4.36h-.84Z" transform="translate(-44.36 -78.08)"/></svg>