<?xml version="1.0" encoding="utf-8"?>
<!-- Generator: Adobe Illustrator 23.0.5, SVG Export Plug-In . SVG Version: 6.00 Build 0)  -->
<svg version="1.1" id="Layer_1" xmlns="http://www.w3.org/2000/svg" xmlns:xlink="http://www.w3.org/1999/xlink" x="0px" y="0px"
	 viewBox="0 0 500 500" style="enable-background:new 0 0 500 500;" xml:space="preserve">
<style type="text/css">
	.st0{fill:#FFFFFF;stroke:#000000;stroke-miterlimit:10;}
	.st1{fill:#00A99D;}
</style>
<path class="st0" d="M-79.5,123.5"/>
<g>
	<g id="XMLID_1_">
		<g>
			<path class="st1" d="M156.3,190.8l63,78.3l-10.5,20.2c0,0-40.4-50.1-52.5-65.4C144.2,208.5,156.3,190.8,156.3,190.8z"/>
		</g>
	</g>
	<g id="XMLID_2_">
		<g>
			<path class="st1" d="M183.3,167.3l78,97l-13,25c0,0-50-62-65-81S183.3,167.3,183.3,167.3z"/>
		</g>
	</g>
	<g>
		<g>
			<g id="XMLID_4_">
				<g>
					<path class="st1" d="M229.3,167.3l65.4,81.3l-13,24.9v0.1c-1.2-1.5-2.5-3.1-3.8-4.7c-16-19.8-39.1-48.6-48.5-60.5
						C214.3,189.3,229.3,167.3,229.3,167.3z"/>
				</g>
			</g>
		</g>
		<g>
			<g id="XMLID_3_">
				<g>
					<path class="st1" d="M349,220.4l-2.2,4.2l-5.2,9.8l-16-4.5l-7.7,14.3l15.3,4.3l-7,13.4l-0.4,0.7l-15.3-4.3l-9,17.6l18.2,5.1
						l-6.9,13.5l-18.5-4.6l-10.8-14l-0.1-0.2c-0.5-0.7-1.1-1.4-1.7-2.1v-0.1l13-24.9l9-17.1l4.8-9.2c4.2-4.9,10.3-8.2,17.2-8.5
						l14.6,4.1L349,220.4z"/>
				</g>
			</g>
		</g>
	</g>
</g>
</svg>
